<svg xmlns="http://www.w3.org/2000/svg" viewBox="0 0 1094.6 772.38"><defs><style>.cls-1{isolation:isolate;}.cls-2{fill:#f6e6d0;}.cls-3{fill:#7ba4ab;}.cls-4{fill:#008e80;}.cls-5{fill:#00b09f;}.cls-6{fill:#ffae36;}.cls-7{fill:#d13459;}.cls-8{fill:#ff4568;}.cls-9{fill:#14e2e2;}.cls-10{fill:#00598b;}.cls-11{fill:#007dc9;}.cls-12{fill:#009aec;}.cls-13{fill:#fff;}.cls-14{fill:#c9c9b5;}.cls-15{fill:#4d6d73;}.cls-16{fill:#808c8e;}.cls-17{fill:#b3b2b2;}.cls-17,.cls-53,.cls-59{mix-blend-mode:multiply;}.cls-18{fill:#b1b6b8;}.cls-19{fill:#04070f;}.cls-20{fill:#41423c;}.cls-21{fill:#d9d6d2;}.cls-22{fill:#9db07c;}.cls-23{fill:#3e4232;}.cls-24{fill:#d3e0b7;}.cls-25{fill:#97f0ff;}.cls-26{fill:#8f8585;}.cls-27{fill:#5eae4d;}.cls-28{fill:#00b71b;}.cls-29{fill:#fda271;}.cls-30{fill:#de7f50;}.cls-31{fill:#1c0707;}.cls-32{fill:#201715;}.cls-33{fill:#4b1f1f;}.cls-34{fill:#0d0a07;}.cls-35{fill:#783d2e;}.cls-36{fill:#063b5c;}.cls-37{fill:#ff0303;}.cls-38{fill:#e60000;}.cls-39{fill:#124b79;}.cls-40{fill:#081727;}.cls-41{fill:#152a43;}.cls-42{fill:#cf1a42;}.cls-43{fill:#45200d;}.cls-44{fill:#8a0d2e;}.cls-45{fill:#fffde8;}.cls-46{fill:#b8b59d;}.cls-47{fill:#00a99f;}.cls-48{fill:#00998f;}.cls-49{fill:#d74e42;}.cls-50{fill:#ff6c58;}.cls-51{fill:#14351b;}.cls-52{fill:#3fa653;}.cls-53{fill:#25843e;opacity:0.5;}.cls-54{fill:#8a1701;}.cls-55{fill:#a22000;}.cls-56{fill:#d64324;}.cls-57{fill:#d9cecc;}.cls-58{fill:#526c73;}.cls-60{fill:#2d3335;}.cls-61{fill:#526063;}</style></defs><g class="cls-1"><g id="Layer_2" data-name="Layer 2"><g id="Layer_1-2" data-name="Layer 1"><path class="cls-2" d="M1046,536.93c-9.12,43.4-22.81,93.3-41.76,150.66-4.85,14.7-11.52,37.4-16.66,48.27a27.71,27.71,0,0,1-2.64,4.65H71l-1.53-4.65C52.73,684,41.92,626.62,38.25,593.43c-2-18.33-3.33-37.25-3.9-56.5-3-101.54,14.47-212,55.4-290.61,49.39-94.86,99.86-164.56,176.88-209,75.1-43.3,177.1-57.2,251,3.42,69.51,57,111.94,118.06,160.15,181.56C758.32,328.42,1139.24,93.79,1046,536.93Z"/><ellipse class="cls-3" cx="547.3" cy="740.51" rx="547.3" ry="31.88"/><rect class="cls-4" x="363.63" y="119.41" width="46.6" height="96.56" transform="matrix(0.96, -0.27, 0.27, 0.96, -30.82, 110.09)"/><path class="cls-5" d="M387.6,117.38l23.89,85.68c1.13,4.05,6,6.23,10.85,4.87s7.88-5.73,6.76-9.77l-23.9-85.69Z"/><rect class="cls-6" x="396.01" y="128.55" width="11.88" height="9.12" transform="translate(-20.98 112.85) rotate(-15.58)"/><rect class="cls-7" x="333.31" y="103.73" width="46.6" height="111.01"/><path class="cls-8" d="M370.82,103.73a8.27,8.27,0,0,0-.05.86V206.13a9.15,9.15,0,0,0,18.27,0V104.59a8.25,8.25,0,0,0,0-.86Z"/><rect class="cls-7" x="374.42" y="109.06" width="10.05" height="23.57"/><rect class="cls-4" x="290.37" y="131.1" width="46.6" height="84.4"/><path class="cls-9" d="M327.83,131.1v77.75c0,3.67,4.09,6.65,9.14,6.65s9.13-3,9.13-6.65V131.1Z"/><rect class="cls-8" x="331.48" y="143.73" width="11.88" height="7.97"/><rect class="cls-10" x="266.77" y="142.28" width="32.73" height="74.66"/><path class="cls-11" d="M293.08,142.28v68.78a6.44,6.44,0,0,0,12.83,0V142.28Z"/><rect class="cls-6" x="295.64" y="153.45" width="8.34" height="7.05"/><rect class="cls-7" x="245.59" y="131.11" width="32.73" height="85.83"/><path class="cls-8" d="M271.93,131.11q0,.33,0,.66v78.52a6.42,6.42,0,1,0,12.83,0V131.77q0-.33,0-.66Z"/><rect class="cls-7" x="274.47" y="135.22" width="7.06" height="18.23"/><rect class="cls-11" x="215.43" y="152.27" width="32.73" height="65.26"/><path class="cls-12" d="M241.74,152.27v60.12c0,2.84,2.87,5.14,6.42,5.14s6.41-2.3,6.41-5.14V152.27Z"/><rect class="cls-13" x="244.31" y="162.03" width="8.34" height="6.17"/><path class="cls-14" d="M453.46,216.87c0,6-2.46,10.84-5.49,10.84H196.8c-3,0-5.49-4.85-5.49-10.84a17.28,17.28,0,0,1,1.61-7.66c1-2,2.36-3.18,3.88-3.18H448C451,206,453.46,210.89,453.46,216.87Z"/><path class="cls-13" d="M453.46,216.87c0,6-2.46,10.84-5.49,10.84H251c-3,0-5.48-4.85-5.48-10.84a17.42,17.42,0,0,1,1.6-7.66c1-2,2.37-3.18,3.88-3.18H448C451,206,453.46,210.89,453.46,216.87Z"/><path class="cls-15" d="M967,736.79c0,7-187.9,12.64-419.68,12.64s-419.68-5.66-419.68-12.64,187.9-12.63,419.68-12.63S967,729.82,967,736.79Z"/><polygon class="cls-16" points="755.91 432.73 761.72 738.79 766.14 738.79 770.01 432.73 770.31 409.07 770.5 394.57 755.18 394.57 755.46 409.07 755.91 432.73"/><polygon class="cls-17" points="770.31 409.07 770.01 432.73 755.91 432.73 755.46 409.07 770.31 409.07"/><polygon class="cls-16" points="902.55 432.73 908.36 738.79 912.78 738.79 916.65 432.73 916.95 409.07 917.13 394.57 901.82 394.57 902.1 409.07 902.55 432.73"/><polygon class="cls-17" points="916.95 409.07 916.65 432.73 902.55 432.73 902.1 409.07 916.95 409.07"/><polygon class="cls-16" points="182.12 432.73 187.93 738.79 192.35 738.79 196.23 432.73 196.53 409.07 196.71 394.57 181.4 394.57 181.68 409.07 182.12 432.73"/><polygon class="cls-17" points="196.53 409.07 196.23 432.73 182.12 432.73 181.68 409.07 196.53 409.07"/><polygon class="cls-16" points="328.76 432.73 334.57 738.79 338.99 738.79 342.87 432.73 343.17 409.07 343.35 394.57 328.04 394.57 328.31 409.07 328.76 432.73"/><polygon class="cls-17" points="343.17 409.07 342.87 432.73 328.76 432.73 328.31 409.07 343.17 409.07"/><path class="cls-16" d="M158.75,401.74c0,6.36,4.21,11.52,9.41,11.52H856.74c5.2,0,9.41-5.16,9.41-11.52h0c0-6.37-4.21-11.53-9.41-11.53H168.16c-5.2,0-9.41,5.16-9.41,11.53Z"/><path class="cls-18" d="M356.27,401.74c0,6.36,3.46,11.52,7.71,11.52H928.14c4.26,0,7.71-5.16,7.71-11.52h0c0-6.37-3.45-11.53-7.71-11.53H364c-4.25,0-7.71,5.16-7.71,11.53Z"/><path class="cls-19" d="M640.55,258.26l18.91,121.31c.91,5.83-2.66,10.55-8,10.55h-173a7.54,7.54,0,0,1-1.16-.08c-4.89-.61-9.43-5.06-10.42-10.47L444.49,258.26c-1.08-5.82,2.46-10.54,7.89-10.54H629.06C634.5,247.72,639.64,252.44,640.55,258.26Z"/><path class="cls-20" d="M672,379.57c.9,5.83-2.82,10.55-8.32,10.55H485c-5.5,0-10.82-4.72-11.89-10.55L450.8,258.26c-1.07-5.82,2.61-10.54,8.23-10.54h182.5c5.61,0,10.89,4.72,11.79,10.54Z"/><path class="cls-21" d="M665.57,362.6c.76,4.9-3,8.88-8.28,8.88H484c-5.33,0-10.39-4-11.29-8.88L454,260.42c-.9-4.91,2.77-8.89,8.2-8.89h176.4c5.43,0,10.44,4,11.2,8.89Z"/><polygon class="cls-22" points="642.23 256.77 660.02 371.01 479.92 371.01 459.05 256.77 642.23 256.77"/><polygon class="cls-13" points="529.04 332.89 529.18 333.72 560.6 333.72 560.46 332.89 529.04 332.89"/><polygon class="cls-13" points="520.9 332.89 509.87 332.89 510.02 333.72 521.04 333.72 520.9 332.89"/><polygon class="cls-13" points="521.77 337.86 510.75 337.86 510.89 338.69 521.92 338.69 521.77 337.86"/><polygon class="cls-13" points="529.91 337.86 530.05 338.69 561.45 338.69 561.3 337.86 529.91 337.86"/><polygon class="cls-13" points="522.64 342.82 511.63 342.82 511.77 343.65 522.79 343.65 522.64 342.82"/><polygon class="cls-13" points="530.77 342.82 530.92 343.65 562.29 343.65 562.15 342.82 530.77 342.82"/><polygon class="cls-13" points="523.51 347.79 512.51 347.79 512.65 348.61 523.66 348.61 523.51 347.79"/><polygon class="cls-13" points="531.64 347.79 531.78 348.61 563.13 348.61 562.99 347.79 531.64 347.79"/><polygon class="cls-13" points="524.38 352.75 513.39 352.75 513.53 353.58 524.53 353.58 524.38 352.75"/><polygon class="cls-13" points="532.5 352.75 532.65 353.58 544.79 353.58 544.65 352.75 532.5 352.75"/><polygon class="cls-13" points="525.26 357.71 514.27 357.71 514.41 358.54 525.4 358.54 525.26 357.71"/><polygon class="cls-13" points="533.37 357.71 533.51 358.54 545.65 358.54 545.5 357.71 533.37 357.71"/><polygon class="cls-13" points="529.44 335.19 529.59 336.01 560.99 336.01 560.85 335.19 529.44 335.19"/><polygon class="cls-13" points="521.3 335.19 510.27 335.19 510.42 336.01 521.45 336.01 521.3 335.19"/><polygon class="cls-13" points="522.17 340.15 511.15 340.15 511.3 340.98 522.32 340.98 522.17 340.15"/><polygon class="cls-13" points="530.31 340.15 530.45 340.98 561.83 340.98 561.69 340.15 530.31 340.15"/><polygon class="cls-13" points="523.05 345.11 512.03 345.11 512.18 345.94 523.19 345.94 523.05 345.11"/><polygon class="cls-13" points="531.17 345.11 531.32 345.94 562.68 345.94 562.53 345.11 531.17 345.11"/><polygon class="cls-13" points="523.92 350.08 512.91 350.08 513.06 350.91 524.06 350.91 523.92 350.08"/><polygon class="cls-13" points="532.04 350.08 532.18 350.91 563.52 350.91 563.38 350.08 532.04 350.08"/><polygon class="cls-13" points="524.79 355.04 513.79 355.04 513.94 355.87 524.93 355.87 524.79 355.04"/><polygon class="cls-13" points="532.9 355.04 533.05 355.87 545.18 355.87 545.04 355.04 532.9 355.04"/><polygon class="cls-13" points="525.66 360.01 514.67 360.01 514.82 360.83 525.8 360.83 525.66 360.01"/><polygon class="cls-13" points="533.77 360.01 533.91 360.83 546.04 360.83 545.9 360.01 533.77 360.01"/><polygon class="cls-13" points="576.78 332.89 565.75 332.89 565.89 333.72 576.92 333.72 576.78 332.89"/><polygon class="cls-13" points="577.61 337.86 566.59 337.86 566.73 338.69 577.75 338.69 577.61 337.86"/><polygon class="cls-13" points="578.44 342.82 567.42 342.82 567.57 343.65 578.58 343.65 578.44 342.82"/><polygon class="cls-13" points="579.27 347.79 568.26 347.79 568.4 348.61 579.41 348.61 579.27 347.79"/><polygon class="cls-13" points="580.1 352.75 569.1 352.75 569.24 353.58 580.24 353.58 580.1 352.75"/><polygon class="cls-13" points="580.93 357.71 569.94 357.71 570.08 358.54 581.07 358.54 580.93 357.71"/><polygon class="cls-13" points="577.16 335.19 566.14 335.19 566.27 336.01 577.3 336.01 577.16 335.19"/><polygon class="cls-13" points="577.99 340.15 566.97 340.15 567.11 340.98 578.13 340.98 577.99 340.15"/><polygon class="cls-13" points="578.82 345.11 567.81 345.11 567.95 345.94 578.96 345.94 578.82 345.11"/><polygon class="cls-13" points="579.65 350.08 568.65 350.08 568.79 350.91 579.79 350.91 579.65 350.08"/><polygon class="cls-13" points="580.48 355.04 569.49 355.04 569.63 355.87 580.62 355.87 580.48 355.04"/><polygon class="cls-13" points="581.31 360.01 570.33 360.01 570.47 360.83 581.45 360.83 581.31 360.01"/><polygon class="cls-13" points="593.57 332.81 582.54 332.81 582.67 333.64 593.7 333.64 593.57 332.81"/><polygon class="cls-13" points="594.39 337.78 583.36 337.78 583.5 338.6 594.52 338.6 594.39 337.78"/><polygon class="cls-13" points="595.2 342.74 584.19 342.74 584.33 343.57 595.34 343.57 595.2 342.74"/><polygon class="cls-13" points="596.02 347.7 585.01 347.7 585.15 348.53 596.16 348.53 596.02 347.7"/><polygon class="cls-13" points="596.84 352.67 585.84 352.67 585.98 353.5 596.98 353.5 596.84 352.67"/><polygon class="cls-13" points="597.66 357.63 586.67 357.63 586.8 358.46 597.79 358.46 597.66 357.63"/><polygon class="cls-13" points="593.95 335.11 582.92 335.11 583.06 335.93 594.08 335.93 593.95 335.11"/><polygon class="cls-13" points="594.76 340.07 583.74 340.07 583.88 340.9 594.9 340.9 594.76 340.07"/><polygon class="cls-13" points="595.58 345.03 584.57 345.03 584.71 345.86 595.72 345.86 595.58 345.03"/><polygon class="cls-13" points="596.4 350 585.4 350 585.53 350.82 596.53 350.82 596.4 350"/><polygon class="cls-13" points="597.22 354.96 586.22 354.96 586.36 355.79 597.35 355.79 597.22 354.96"/><polygon class="cls-13" points="598.03 359.93 587.05 359.93 587.18 360.75 598.17 360.75 598.03 359.93"/><polygon class="cls-13" points="610.36 332.73 599.33 332.73 599.46 333.56 610.49 333.56 610.36 332.73"/><polygon class="cls-13" points="611.16 337.7 600.14 337.7 600.27 338.52 611.3 338.52 611.16 337.7"/><polygon class="cls-13" points="611.97 342.66 600.95 342.66 601.09 343.49 612.1 343.49 611.97 342.66"/><polygon class="cls-13" points="612.77 347.63 601.77 347.63 601.9 348.45 612.91 348.45 612.77 347.63"/><polygon class="cls-13" points="613.58 352.59 602.58 352.59 602.72 353.42 613.71 353.42 613.58 352.59"/><polygon class="cls-13" points="614.38 357.55 603.39 357.55 603.53 358.38 614.52 358.38 614.38 357.55"/><polygon class="cls-13" points="610.73 335.02 599.7 335.02 599.84 335.85 610.86 335.85 610.73 335.02"/><polygon class="cls-13" points="611.53 339.99 600.51 339.99 600.65 340.82 611.67 340.82 611.53 339.99"/><polygon class="cls-13" points="612.34 344.95 601.33 344.95 601.46 345.78 612.47 345.78 612.34 344.95"/><polygon class="cls-13" points="613.14 349.92 602.14 349.92 602.28 350.75 613.28 350.75 613.14 349.92"/><polygon class="cls-13" points="613.95 354.88 602.95 354.88 603.09 355.71 614.08 355.71 613.95 354.88"/><polygon class="cls-13" points="614.75 359.85 603.77 359.85 603.9 360.67 614.89 360.67 614.75 359.85"/><polygon class="cls-13" points="644.8 332.65 616.11 332.65 616.25 333.48 644.93 333.48 644.8 332.65"/><polygon class="cls-13" points="645.58 337.62 616.92 337.62 617.05 338.44 645.71 338.44 645.58 337.62"/><polygon class="cls-13" points="646.36 342.58 617.72 342.58 617.85 343.41 646.49 343.41 646.36 342.58"/><polygon class="cls-13" points="647.14 347.54 618.52 347.54 618.65 348.37 647.27 348.37 647.14 347.54"/><polygon class="cls-13" points="647.92 352.51 619.32 352.51 619.45 353.34 648.05 353.34 647.92 352.51"/><polygon class="cls-13" points="648.7 357.47 620.12 357.47 620.25 358.3 648.83 358.3 648.7 357.47"/><polygon class="cls-13" points="645.16 334.94 616.49 334.94 616.62 335.77 645.29 335.77 645.16 334.94"/><polygon class="cls-13" points="645.94 339.91 617.28 339.91 617.42 340.74 646.07 340.74 645.94 339.91"/><polygon class="cls-13" points="646.72 344.87 618.09 344.87 618.22 345.7 646.85 345.7 646.72 344.87"/><polygon class="cls-13" points="647.5 349.84 618.89 349.84 619.02 350.66 647.63 350.66 647.5 349.84"/><polygon class="cls-13" points="648.28 354.8 619.69 354.8 619.82 355.63 648.41 355.63 648.28 354.8"/><polygon class="cls-13" points="649.05 359.76 620.49 359.76 620.62 360.59 649.18 360.59 649.05 359.76"/><polygon class="cls-13" points="555.58 280.55 555.74 281.52 568.81 281.52 568.65 280.55 555.58 280.55"/><polygon class="cls-13" points="552.19 280.55 547.61 280.55 547.77 281.52 552.36 281.52 552.19 280.55"/><polygon class="cls-13" points="553.18 286.39 548.6 286.39 548.77 287.37 553.35 287.37 553.18 286.39"/><polygon class="cls-13" points="556.57 286.39 556.73 287.37 569.79 287.37 569.63 286.39 556.57 286.39"/><polygon class="cls-13" points="554.18 292.24 549.6 292.24 549.76 293.21 554.34 293.21 554.18 292.24"/><polygon class="cls-13" points="557.56 292.24 557.72 293.21 570.76 293.21 570.6 292.24 557.56 292.24"/><path class="cls-23" d="M521.92,323.39a18.47,18.47,0,0,1-6.68,1,2.06,2.06,0,0,1-1.35-.57,2.19,2.19,0,0,1-.77-1.24L511,310.37c-.12-.52-.23-1-.34-1.57a8.11,8.11,0,0,1-.21-1.49c0-.72.59-1.16,1.81-1.32a11.43,11.43,0,0,1,2.9-.25,8.42,8.42,0,0,1,4.47,1.41,6,6,0,0,1,3.08,4.09,4.28,4.28,0,0,1-.1,2.23,4.5,4.5,0,0,1-1.06,1.58,7.31,7.31,0,0,1,2.29,1.64,4.68,4.68,0,0,1,1.41,2.43A3.14,3.14,0,0,1,524,322,6.64,6.64,0,0,1,521.92,323.39Zm-6.24-14.53c-1,0-1.61,0-1.8,0l.44,2.44.41,2.42a9.2,9.2,0,0,0,1.61.08c2.35-.19,3.38-1.05,3.11-2.59a2.54,2.54,0,0,0-1.32-1.58A4.48,4.48,0,0,0,515.68,308.86Zm2.79,8.15c-.7,0-1.77,0-3.18-.08l.76,4.31a18.85,18.85,0,0,0,4.21-.76c1.3-.39,1.9-.8,1.81-1.25s-.66-1.12-1.6-1.58A5.76,5.76,0,0,0,518.47,317Z"/><path class="cls-23" d="M536,324.54a10.44,10.44,0,0,1-6.2-2,8.18,8.18,0,0,1-3.53-5.42,10.13,10.13,0,0,1,1.24-7.15,7,7,0,0,1,6.39-3.63,10.15,10.15,0,0,1,6.42,1.85,8.6,8.6,0,0,1,3,5.54,10.68,10.68,0,0,1-1.06,7.1A6.63,6.63,0,0,1,536,324.54Zm-1.56-15a4.41,4.41,0,0,0-4,2.49,7.47,7.47,0,0,0-.84,5.16,4.68,4.68,0,0,0,2,3.11,6.5,6.5,0,0,0,3.84,1.15,4.12,4.12,0,0,0,3.85-2.49,8,8,0,0,0,.68-5.16,5.11,5.11,0,0,0-1.68-3.36A6.53,6.53,0,0,0,534.44,309.51Z"/><path class="cls-23" d="M555,324.54a10.39,10.39,0,0,1-6.2-2,8.13,8.13,0,0,1-3.52-5.42,10.14,10.14,0,0,1,1.26-7.15,7,7,0,0,1,6.4-3.63,10.11,10.11,0,0,1,6.42,1.85,8.49,8.49,0,0,1,3,5.54,10.69,10.69,0,0,1-1.08,7.1A6.64,6.64,0,0,1,555,324.54Zm-1.52-15a4.43,4.43,0,0,0-4,2.49,7.48,7.48,0,0,0-.86,5.16,4.7,4.7,0,0,0,2,3.11,6.53,6.53,0,0,0,3.85,1.15,4.11,4.11,0,0,0,3.84-2.49,7.89,7.89,0,0,0,.7-5.16,5.1,5.1,0,0,0-1.66-3.36A6.53,6.53,0,0,0,553.51,309.51Z"/><path class="cls-23" d="M568.53,318.74l.8,4.85a1.47,1.47,0,0,1-.14.93,1.11,1.11,0,0,1-1.08.59,2,2,0,0,1-1.57-.74,2.49,2.49,0,0,1-.62-1.23q-.42-2.56-1.13-7.69c-.47-3.42-.84-6-1.13-7.68a1.32,1.32,0,0,1,.28-1.11,1.34,1.34,0,0,1,1.09-.46,1.83,1.83,0,0,1,1.24.46,1.88,1.88,0,0,1,.65,1.11c.11.69.23,1.62.36,2.8.15,1.36.25,2.3.32,2.8.46-.51,2.12-2.64,5-6.41a1.38,1.38,0,0,1,1.14-.58,1.91,1.91,0,0,1,1.23.47,1.78,1.78,0,0,1,.69,1.11q.12.72-2.16,3.71-1.68,2.2-3.59,4.35l2.94,2.37c1.15.91,2.17,1.65,3.06,2.24a5.39,5.39,0,0,0,1.38.64,1.88,1.88,0,0,1,1.5,1.51,1.53,1.53,0,0,1-.15,1,1.16,1.16,0,0,1-1.1.62q-1.66,0-4.68-2.16Q571.94,321.55,568.53,318.74Z"/><path class="cls-23" d="M588,310.22c-.38,0-1.42-.11-3.12-.32q.18,2.12.77,5.63l.84,5.18c1,0,2.08,0,3.15,0a1.86,1.86,0,0,1,1.23.46,1.88,1.88,0,0,1,.65,1.11,1.29,1.29,0,0,1-.29,1.1,1.4,1.4,0,0,1-1.11.45l-2,0-2,0a20.51,20.51,0,0,0-2.32.2,18.51,18.51,0,0,1-2.32.21,2,2,0,0,1-1.26-.46,1.78,1.78,0,0,1-.65-1.1,1.27,1.27,0,0,1,.31-1.11,1.51,1.51,0,0,1,1.16-.46,17.14,17.14,0,0,0,2.2-.17c-.17-.91-.46-2.64-.89-5.21-.34-2.09-.6-4.08-.76-6l-2.52.07a1.89,1.89,0,0,1-1.24-.45,1.75,1.75,0,0,1-.66-1.12,1.22,1.22,0,0,1,.27-1.1,1.4,1.4,0,0,1,1-.45c.65-.06,1.8-.09,3.44-.09a45.4,45.4,0,0,1,5.79.48,1.78,1.78,0,0,1,1.66,1.59,1.21,1.21,0,0,1-.35,1.16A1.33,1.33,0,0,1,588,310.22Z"/><path class="cls-23" d="M610.3,321a11.33,11.33,0,0,1,.1,1.82,1.29,1.29,0,0,1-1.46,1.48,3.48,3.48,0,0,1-2-.91,110.54,110.54,0,0,1-12-11.21c.28,2,.45,3.22.53,3.68s.26,1.52.49,2.74.39,2.14.49,2.74c.37,2.27,0,3.4-1.12,3.4a2.12,2.12,0,0,1-1.45-.52,1.85,1.85,0,0,1-.63-1.12c-.05-.3-.11-.77-.16-1.39s-.1-1.09-.15-1.39c-.08-.46-.17-1.14-.29-2s-.21-1.59-.29-2-.21-1.22-.39-2.19-.32-1.71-.4-2.19a19.8,19.8,0,0,0-.48-2.06c-.24-.92-.4-1.6-.48-2.07a1.4,1.4,0,0,1,.4-1.23,1.69,1.69,0,0,1,1.28-.54c.58,0,1.3.49,2.16,1.48A97.89,97.89,0,0,0,607,319.62c0-.24-.13-.83-.28-1.75-.61-3.78-1.06-6.34-1.36-7.66,0-.22-.17-.64-.35-1.24a11.11,11.11,0,0,1-.32-1.27q-.25-1.59,1.44-1.59,1.9,0,2.84,5.79c0,.09.11.7.27,1.82C609.78,317.63,610.15,320.05,610.3,321Z"/><path class="cls-23" d="M626.19,317.07a8.27,8.27,0,0,1-2.31,5.49,7.34,7.34,0,0,1-5.37,2.08,7.07,7.07,0,0,1-4.9-1.62,8,8,0,0,1-2.34-4.86,13.12,13.12,0,0,1,.5-6.05,11.6,11.6,0,0,1,3-5,4.58,4.58,0,0,1,3.26-1.35,9.63,9.63,0,0,1,3.21.81c1.65.63,2.52,1.31,2.64,2a1.4,1.4,0,0,1-.3,1.11,1.38,1.38,0,0,1-1.1.49,5.73,5.73,0,0,1-1.65-.65,5.18,5.18,0,0,0-2.29-.65c-.7,0-1.53.74-2.48,2.23a9.78,9.78,0,0,0-1.46,7,5.05,5.05,0,0,0,1,2.62,3.41,3.41,0,0,0,2.46.72,4.43,4.43,0,0,0,3-1,5,5,0,0,0,1.62-3.09,12.66,12.66,0,0,0-4.53,1.1,1.66,1.66,0,0,1-.69.16,1.86,1.86,0,0,1-1.29-.53,1.82,1.82,0,0,1-.6-1.07q-.29-1.77,3.82-2.47a33.43,33.43,0,0,1,5.48-.39,1.9,1.9,0,0,1,1.25.45,1.78,1.78,0,0,1,.65,1.1A1.28,1.28,0,0,1,626.19,317.07Z"/><polygon class="cls-24" points="642.23 256.77 643.96 267.85 461.07 267.85 459.05 256.77 642.23 256.77"/><polygon class="cls-25" points="537.57 272.44 542.45 300.9 500.19 300.9 495.13 272.44 537.57 272.44"/><polygon class="cls-26" points="505.73 300.9 500.19 300.9 497.27 284.46 502.82 284.46 505.73 300.9"/><polygon class="cls-26" points="511.26 300.9 504.72 300.9 502.52 288.47 509.07 288.47 511.26 300.9"/><polygon class="cls-26" points="515.29 300.9 510.26 300.9 506.16 277.65 511.2 277.65 515.29 300.9"/><polygon class="cls-26" points="521.83 300.9 513.27 300.9 510.38 284.46 518.96 284.46 521.83 300.9"/><polygon class="cls-26" points="526.86 300.9 519.82 300.9 518.13 291.28 525.18 291.28 526.86 300.9"/><polygon class="cls-26" points="533.4 300.9 526.35 300.9 522.94 281.26 530 281.26 533.4 300.9"/><polygon class="cls-26" points="540.44 300.9 529.88 300.9 528.07 290.48 538.65 290.48 540.44 300.9"/><polygon class="cls-26" points="542.45 300.9 536.92 300.9 534.71 288.07 540.25 288.07 542.45 300.9"/><polygon class="cls-25" points="611.44 272.44 615.77 299.37 575.77 299.37 571.29 272.44 611.44 272.44"/><path class="cls-27" d="M612.67,280.08l3.1,19.29h-40l-1-6.09c3.12-2.67,6.06-4.75,8.08-4.55,2.4.24,5.87,4.91,7.73,4.61,1.15-.19.55-2.3,1.33-2.79,1.59-1,3.2.28,4.72-.25s3.58-3.78,5.07-4.88a37.11,37.11,0,0,1,6.24-3.59C610,280.83,611.15,279.83,612.67,280.08Z"/><path class="cls-27" d="M582.13,286.25a3.93,3.93,0,0,0,4.21-.82c-2,.16-5.1-3.65-5.18-4.07a2.42,2.42,0,0,0,2.16-.27,11.24,11.24,0,0,1-2.46-1.85c-.17-.18-.35-.37-.51-.57-.1.2-.21.39-.32.57a6.92,6.92,0,0,1-1.85,1.85,2.7,2.7,0,0,0,2.25.27h0c.06.42-1.77,4.23-3.83,4.07a4.62,4.62,0,0,0,4.48.82,3.74,3.74,0,0,1-4.2,2.59,6.23,6.23,0,0,0,5.34,1.37s0-.1,0-.15a1,1,0,0,1,.07.15,4.94,4.94,0,0,0,4.88-1.37A5.37,5.37,0,0,1,582.13,286.25Z"/><path class="cls-27" d="M595.38,290.29a3.93,3.93,0,0,0,4.21-.81c-2,.15-5.1-3.65-5.17-4.08a2.36,2.36,0,0,0,2.15-.26,11.44,11.44,0,0,1-2.45-1.85c-.17-.18-.35-.37-.51-.57a4,4,0,0,1-.32.57,6.92,6.92,0,0,1-1.85,1.85,2.65,2.65,0,0,0,2.25.26h0c.06.43-1.77,4.23-3.84,4.08a4.61,4.61,0,0,0,4.48.81,3.76,3.76,0,0,1-4.2,2.6,6.2,6.2,0,0,0,5.33,1.37.81.81,0,0,0,0-.16l.07.16a4.94,4.94,0,0,0,4.88-1.37A5.36,5.36,0,0,1,595.38,290.29Z"/><path class="cls-27" d="M602.82,282.33a3.93,3.93,0,0,0,4.21-.82c-2,.16-5.09-3.65-5.17-4.08a2.38,2.38,0,0,0,2.16-.26,11.2,11.2,0,0,1-2.45-1.85,6.91,6.91,0,0,1-.51-.57,5.3,5.3,0,0,1-.33.57,6.78,6.78,0,0,1-1.85,1.85,2.66,2.66,0,0,0,2.25.26h0c.06.43-1.78,4.24-3.85,4.08a4.62,4.62,0,0,0,4.48.82,3.75,3.75,0,0,1-4.2,2.59,6.2,6.2,0,0,0,5.33,1.37c0-.05,0-.1,0-.15l.06.15a5,5,0,0,0,4.89-1.37A5.37,5.37,0,0,1,602.82,282.33Z"/><polygon class="cls-13" points="620.11 265.32 612.45 265.32 611.49 259.3 619.16 259.3 620.11 265.32"/><polygon class="cls-28" points="630.33 265.32 622.67 265.32 621.71 259.3 629.38 259.3 630.33 265.32"/><polygon class="cls-22" points="640.04 265.32 632.38 265.32 631.43 259.3 639.1 259.3 640.04 265.32"/><polygon class="cls-13" points="470.25 264.8 463.63 264.8 462.87 260.59 469.49 260.59 470.25 264.8"/><polygon class="cls-24" points="505.22 367.19 481.06 367.19 463.78 272.44 488.27 272.44 505.22 367.19"/><polygon class="cls-22" points="485.99 277.02 467.72 277.02 467.44 275.49 485.71 275.49 485.99 277.02"/><polygon class="cls-22" points="481.87 280.08 468.28 280.08 468 278.55 481.6 278.55 481.87 280.08"/><polygon class="cls-22" points="483.25 287.72 469.67 287.72 469.39 286.19 482.97 286.19 483.25 287.72"/><polygon class="cls-22" points="484.62 295.36 471.06 295.36 470.78 293.83 484.35 293.83 484.62 295.36"/><polygon class="cls-22" points="486 303 472.45 303 472.17 301.48 485.72 301.48 486 303"/><polygon class="cls-22" points="484.14 292.69 470.57 292.69 470.3 291.16 483.87 291.16 484.14 292.69"/><polygon class="cls-22" points="487.37 310.65 473.84 310.65 473.56 309.12 487.1 309.12 487.37 310.65"/><polygon class="cls-22" points="499.78 350.76 480.56 350.76 474.1 315.23 493.42 315.23 499.78 350.76"/><polygon class="cls-13" points="488.79 355.64 489.09 357.29 500.69 357.29 500.39 355.64 488.79 355.64"/><polygon class="cls-13" points="485.78 355.64 481.71 355.64 482.01 357.29 486.08 357.29 485.78 355.64"/><path class="cls-23" d="M705,376.75a3,3,0,0,1-3,3.05H488a3.05,3.05,0,0,1-3.06-3.05h0a3.06,3.06,0,0,1,3.06-3.06H702a3.06,3.06,0,0,1,3,3.06Z"/><path class="cls-20" d="M714.19,384a7,7,0,0,1-7.26,6.69H480.36a7.71,7.71,0,0,1-3-.61A6.65,6.65,0,0,1,473.1,384a6.42,6.42,0,0,1,2.12-4.73,7.56,7.56,0,0,1,5.14-2H706.93A7,7,0,0,1,714.19,384Z"/><path class="cls-19" d="M548.36,384a6.7,6.7,0,0,1-4.43,6.16,7.73,7.73,0,0,1-2.82.53H480.36a7.71,7.71,0,0,1-3-.61,9.66,9.66,0,0,1-8.48-9.64v-3.13h72.24A7,7,0,0,1,548.36,384Z"/><path class="cls-29" d="M756.56,286.73c12.11-3.29,32.42-25.24,44.34-28.46a25.5,25.5,0,0,1-3.41-4.83c-4.8-8.17-11.67-23.95-16-37.17-1.23-3.78-2.25-7.33-3-10.44-.16-.66-.29-1.3-.4-1.92-1.07-5.31-1-9,.8-9.67L770.09,197l-18.89,5.86-24.81,7.71a39.62,39.62,0,0,1,5.69,6.74A109.37,109.37,0,0,1,742,236C749.37,253.29,754.93,274.19,756.56,286.73Z"/><path class="cls-30" d="M765.75,259.48c7.26-2.35,15.35-3.45,23-4.84,2.63-.47,5.68-.79,8.79-1.2-4.8-8.17-11.67-23.95-16-37.17-1.23-3.78-2.25-7.33-3-10.44-.16-.66-.29-1.3-.4-1.92l-32.63,15.86C762.19,222.66,762.92,247.33,765.75,259.48Z"/><path class="cls-29" d="M692.67,199.71c.64,2.52,3.25,2.88,6.69,2.92a54.64,54.64,0,0,0,8.22-.66l1.34-.19-2.43-4.05,0-.08-10.24-17c-1.62,5-3.81,12.71-3.68,17.95A4.45,4.45,0,0,0,692.67,199.71Z"/><path class="cls-30" d="M692.67,199.71c.64,2.52,3.25,2.88,6.69,2.92a54.64,54.64,0,0,0,8.22-.66,31,31,0,0,0-1.09-4.24l0-.08h0c-2.72.45-5.26,1.71-8.16,2C696.91,199.81,694.36,199.5,692.67,199.71Z"/><path class="cls-29" d="M712.72,231.26l.44.64c5,6.82,10.78,3.09,17.66.52a64.57,64.57,0,0,0,20-11.17c5.16-4.15,12.32-9.59,16.06-15.36a18.38,18.38,0,0,0,1.47-2.7c2.73-6.24,7.17-12.48,7-19.52-.25-8.65-3.7-23.68-9.09-30.36L701.1,134.22c-4,.41-5.2,15.46-5.93,19.44-.58,3.38-1.62,7-1.3,10.35s3.29,5,4.48,7.46a4.72,4.72,0,0,1,.44,1.36c.22,1.36-.9,3.76-1.76,5.87a14,14,0,0,0-.92,2.75c-.63,3.92.26,5.72,1.58,9.46,2.46,6.85,4.37,13.79,6.85,20.73C706.87,218.2,708.9,225.52,712.72,231.26Z"/><path class="cls-31" d="M693.43,162c5.85-.09,11.41.9,17.2,1.42l-1.21,5.28c-4.67.36-10.14-.59-14.66,1.23A35.54,35.54,0,0,1,693.43,162Z"/><path class="cls-13" d="M697,178.7a8.13,8.13,0,0,0,4.08-.76,13.56,13.56,0,0,0,4.82-3.37c-1.33-2.47-3.65-2.92-6.08-3l-1.5-.06a4.75,4.75,0,0,1,.44,1.35C699,174.18,697.89,176.59,697,178.7Z"/><path class="cls-32" d="M697,178.7a8.13,8.13,0,0,0,4.08-.76,9.86,9.86,0,0,0-.35-4.3,9.53,9.53,0,0,0-.91-2.11l-1.5-.06a4.75,4.75,0,0,1,.44,1.35C699,174.18,697.89,176.59,697,178.7Z"/><path class="cls-30" d="M713.16,231.9c5,6.82,10.78,3.09,17.66.52a64.57,64.57,0,0,0,20-11.17c5.16-4.15,12.32-9.59,16.06-15.36l-22.75-13.27C747.69,212.77,733.06,231.62,713.16,231.9Z"/><path class="cls-33" d="M679.82,142.64c3.11,6.09,12.28,9.71,20.46,5.86,28.84-18.07,17.76,33.17,26.48,45.77,1.76.21,11.44-.85,13.21-1.19-2.77-43.13,8.8,5.11,14,13,4.38,6.66,6.43,8.6,14.32,11.1,6.81,2.16,6.38-6.42,11.41-8,0,0,11.21-16.11,22.81-41.13,3.21-6.92,3.74-12.32,2.62-17.32-1-4.5-3.35-8.69-6.29-13.38,3.51-2.62,4.68-4.64,8.12-7.13-5.15-2-6.28,0-11.26-.55,1.49-3.12,3.33-6.75,3.26-10-3.44,1.91-9,.07-12.3,2.18.3-4.27-36.33-42.79-102.12,6.11C678.43,132.93,677.64,138.39,679.82,142.64Z"/><path class="cls-31" d="M679.82,142.64c3.11,6.09,12.28,9.71,20.46,5.86,28.84-18.07,17.76,33.17,26.48,45.77,1.76.21,11.44-.85,13.21-1.19-2.77-43.13,6.24,14.2,11.47,22.14,4.39,6.65,14.49,5.61,23,3,6.85-2.06,10.67-3.42,14.38-7.62,0,0,2.1-17.56,13.7-42.58,3.21-6.92,3.74-12.32,2.62-17.32a14.08,14.08,0,0,1-.15,2.67c-.86,5.53-5.1,7.7-9.85,9.86,5-2.17,2.28-9.83,1.31-13.79-2.22,4.17-4.34,8.2-8.41,10.91-3.43,2.27-7.78,2.78-11,5a43.05,43.05,0,0,0-11.17-10.58c-4.12-2.57-8.89-3-13.14-4.84-1.61,2.74-4.45,6.63-7.66,7.33-2-5.09.89-10.48,2.74-15.2a84.18,84.18,0,0,0-12.74,9.81c-4.64-4.25-4.8-11.55-11.59-14.79s-11.28-.75-17.27,1.71A59.93,59.93,0,0,1,679.82,142.64Z"/><path class="cls-29" d="M732.42,172.23c9.8-13.31,23.23,2,15.93,14.82s-14.47,7.71-15.63-4.7C732.72,182.35,730.93,174.27,732.42,172.23Z"/><path class="cls-30" d="M747.72,176.42c-1.29-3-4-4.2-7.19-2.68,5.63,2.92,5.6,12.62-1.6,12.94l-.16-.46c1.47-.89,3.05-4.48,2.54-6.87-.69-3.22-4.44-2.87-4.58-5C736.31,167.78,747.34,170.29,747.72,176.42Z"/><path class="cls-29" d="M748.42,672.83c0,5.32-1.72,18-1.54,25.55.1,4.37-1.85,21.94-8.58,23.09-3.91.66-16.77,4.72-19.37-1-1-2.19,4-8.26,5-12.74,2.57-12.06-4.1-28.59-5.85-32.4Z"/><path class="cls-34" d="M759.11,736.43c-15.17,1.65-51.5,2.25-63.91-1.32v-4.84l.46-.47c4.07-4,10.78-9.07,16.28-13.48a101.61,101.61,0,0,1,11.94-8.56c-4.44,20,4.3,7.54,13.92,2.86,6.66-3.22,10.46-3,14.56,2.6,1.32,1.81,5.52,13.94,6.56,19.38C759.87,737.76,759.11,736.43,759.11,736.43Z"/><path class="cls-35" d="M758.92,732.6c-16.6,1.79-55.55,2.88-63.72-1.93h0v0a9.21,9.21,0,0,1,.46-.85c4.07-4,10.78-9.07,16.28-13.48a101.61,101.61,0,0,1,11.94-8.56c-4.44,20,4.3,7.54,13.92,2.86,6.66-3.22,10.46-3,14.56,2.6C753.68,715,757.88,727.16,758.92,732.6Z"/><path class="cls-36" d="M744.14,490.26l-54.15,4c-1,8.45.27,22.6.78,26.06,7.82,52.05,7.81,73.61,17.66,124.68,3.31,17.09,6.18,33.87,8.69,51.09l33.09-3.37c5-41.62,15-88.63,3.75-129.17-6-21.66-11.32-42.91-10.07-67.39C744,494.34,744.06,492.37,744.14,490.26Z"/><path class="cls-37" d="M854.44,249.47l-90.6-17.32c-11.78,13.55-42.15,14.37-54.33,29.32-11.43,14-3,152.82-3,197.17,0,19.41-2.11,37.62-1.13,57.09,20.8,5,52,1.6,73.05-2.54,11.49-2.26,23.56-2.34,29.26-10.65,8-11.6,9.08-35.33,12.43-49.26a1534.47,1534.47,0,0,0,34.35-198.41C854.69,253.1,854.26,251.26,854.44,249.47Z"/><path class="cls-38" d="M725.31,421.78C721.2,403.47,724,345,723,326.3c-1-17.92-5,4.23-3.58-13.65A215.07,215.07,0,0,1,722,291.21c.63-3.5,3.63-9.64,2.33-12.87L710.55,296.1c-3.18,15.63-10.43,30.29-12.88,46.19-2.82,18.32-2,37.06-2.67,55.54-.57,14.92-2.39,29.86-1.77,44.84.27,6.4.71,13.14-1.71,19,4.49,2.74,18.55-2.9,23.92-3.45,7.28-.76,15.66-3.88,22.93-3.08C731.17,447,727.6,432,725.31,421.78Z"/><path class="cls-29" d="M635.69,671.84c0,5.32-1.72,18-1.54,25.54.1,4.38-1.85,22-8.58,23.09-3.91.67-16.77,4.72-19.37-1-1-2.19,4-8.25,4.95-12.74,2.57-12.06-4.1-28.58-5.85-32.4Z"/><path class="cls-34" d="M646.38,735.44c-15.17,1.64-51.5,2.24-63.91-1.33v-4.84l.46-.46c4.07-4,10.78-9.08,16.28-13.49a101.61,101.61,0,0,1,11.94-8.56c-4.44,20,4.3,7.54,13.92,2.86,6.66-3.21,10.46-3,14.56,2.6,1.32,1.81,5.52,13.95,6.56,19.38C647.14,736.76,646.38,735.44,646.38,735.44Z"/><path class="cls-35" d="M646.19,731.6c-16.6,1.8-55.55,2.88-63.72-1.92h0a8.08,8.08,0,0,1,.46-.85c4.07-4,10.78-9.08,16.28-13.49a101.61,101.61,0,0,1,11.94-8.56c-4.44,20,4.3,7.54,13.92,2.86,6.66-3.21,10.46-3,14.56,2.6C641,714,645.15,726.17,646.19,731.6Z"/><path class="cls-39" d="M631.41,489.27l-54.15,4c-1,8.44.27,22.59.79,26.06,7.81,52,7.81,73.61,17.65,124.68,3.31,17.09,6.18,33.86,8.69,51.08l33.09-3.36c5-41.63,15-88.64,3.75-129.17-6-21.67-11.32-42.91-10.07-67.4C631.25,493.34,631.33,491.37,631.41,489.27Z"/><path class="cls-39" d="M719.64,434.66c-28.58,8.7-58.22,13.75-86.3,24.28-11.34,4.26-55.53,21-56.08,34.31-.13,3.24.89,21.13,4.25,23.49,9.09,6.38,32.87.89,45.7.52,25.82-.74,51.73-2.74,77.29-2.66,24.4.08,49.08-9.12,72.66-6.66Z"/><path class="cls-37" d="M730.53,252.17c-12.61-3.72-23.63,8.37-28.15,17.92-6.13,13-31.47,113.53-34,126.7-2.33,12-2,21.22,14,21.55,17.94.37,22.24-12.4,26.6-25.71,8.32-25.35,31.43-107.76,29.11-125.84Z"/><path class="cls-29" d="M642.29,382.34c-2.76-2.08-1.59-6-4.07-6.76-1.31-.39-4.56-4.27-5.87-4.6-4.81-1.25-7.54-.7-12.47-1.1-5.42-.43-7.49-.78-18.41,3l-12,6.93c13.4,1.66,41.42,15.32,56.85,10.18C644.7,387.09,645,384.38,642.29,382.34Z"/><path class="cls-29" d="M692.46,420.69c-4.79,3.06-21.24-4.5-36.28-13.8-11-6.81-21.28-14.55-25.64-19.73l11.61-5.81c8.67,3.27,22.35-.06,32.9,2.56,7.07,1.76,16,4.55,24.36,6.14a62.7,62.7,0,0,0,10.25,1.19C710.1,393.71,700.18,415.76,692.46,420.69Z"/><path class="cls-30" d="M692.46,420.69c-4.79,3.06-21.24-4.5-36.28-13.8,1.41.46,2.58.83,3.4,1.11,7.68,2.58,19.3,7.35,27.56,4.3s10.32-14.58,12.27-22.25a62.7,62.7,0,0,0,10.25,1.19C710.1,393.71,700.18,415.76,692.46,420.69Z"/><path class="cls-40" d="M778.12,556.32c11.13,1.73,42.72,6.27,46.46,8.94,4.53,3.24,14.92,24.18,23.67,14.59C865.47,561,811.17,557.09,778.12,556.32Z"/><path class="cls-40" d="M736.62,702.55l.46-9.17,2.37-48.15L745,533.65h10.62l7.11,111.58,3.06,48.15.44,6.88c0,4.22-9.46,14.52-13.64,14.52S736.62,706.77,736.62,702.55Z"/><polygon class="cls-40" points="738.18 601.67 740.28 548.06 760.83 548.06 763.53 601.67 738.18 601.67"/><path class="cls-40" d="M665.64,727.85c0,6.78-5.75,12.27-12.86,12.27s-12.86-5.49-12.86-12.27,5.76-12.27,12.86-12.27S665.64,721.07,665.64,727.85Z"/><path class="cls-40" d="M787.36,727.85c0,6.78-5.76,12.27-12.86,12.27s-12.87-5.49-12.87-12.27,5.76-12.27,12.87-12.27S787.36,721.07,787.36,727.85Z"/><path class="cls-40" d="M875.54,727.85c0,6.78-5.75,12.27-12.86,12.27s-12.86-5.49-12.86-12.27,5.76-12.27,12.86-12.27S875.54,721.07,875.54,727.85Z"/><polygon class="cls-40" points="881.7 726.78 635.19 726.78 637.8 713.78 759.09 702.77 881.7 715.78 881.7 726.78"/><polygon class="cls-41" points="752.15 702.77 751.39 703.01 751.39 726.78 788.09 726.78 788.09 715.78 752.15 702.77"/><path class="cls-40" d="M748.52,557.71c-11.13,1.73-42.72,6.27-46.46,8.94-4.53,3.24-14.92,24.18-23.67,14.59C661.17,562.37,715.47,558.48,748.52,557.71Z"/><path class="cls-40" d="M673.89,532.27l1.26,1c14.38,11.61,41.36,34,43.8,35.32,1.47.79,5,1.58,9.38,2.32,10.66,1.77,26.5,3.13,30.93,2.84,11.45-.75,21.64-4.48,37.85-10.73,4.88-1.87,14-17.46,22.78-30.77Z"/><path class="cls-41" d="M783.31,532.27c6.65,13.4-20.1,32.55-40.44,36.9a89.84,89.84,0,0,1-14.54,1.76c10.66,1.77,26.5,3.13,30.93,2.84,11.45-.75,21.64-4.48,37.85-10.73,4.88-1.87,14-17.46,22.78-30.77Z"/><rect class="cls-40" x="840.74" y="430.22" width="18.01" height="83.35"/><rect class="cls-41" x="846.01" y="430.22" width="18.01" height="83.35"/><path class="cls-42" d="M903.73,432c0,6.55-2.93,11.85-6.55,11.85h-67.5c-3.62,0-6.55-5.3-6.55-11.85v-1.18c0-6.55,2.93-11.86,6.55-11.86h67.5c3.62,0,6.55,5.31,6.55,11.86Z"/><path class="cls-43" d="M855.51,432c0,6.55-2,11.85-4.52,11.85H804.36c-2.5,0-4.53-5.3-4.53-11.85v-1.18c0-6.55,2-11.86,4.53-11.86H851c2.5,0,4.52,5.31,4.52,11.86Z"/><path class="cls-42" d="M708.29,518.72c0,9.19-3.35,16.63-7.47,16.63H623.89c-4.13,0-7.47-7.44-7.47-16.63v-1.66c0-9.18,3.34-16.63,7.47-16.63h76.93c4.12,0,7.47,7.45,7.47,16.63Z"/><path class="cls-44" d="M894.5,518.72c0,9.19-8.18,16.63-18.27,16.63H688.07c-10.09,0-18.27-7.44-18.27-16.63v-1.66c0-9.18,8.18-16.63,18.27-16.63H876.23c10.09,0,18.27,7.45,18.27,16.63Z"/><path class="cls-44" d="M879.36,535.35c-7.6-36.74,34.37-275.4,23.28-292.26-4.34-6.57-37.84-19.56-60.18-20.71-15.35-.78-21.21-.81-30-1l-3.61-.1c-17.56-.55-30.09,1.54-39.57,4.81-14.11,4.85-21.46,12.33-28.57,17.66l-.57.42c-12.73,9.36-18.68,121-21.23,195.7-.8,23.83-9.94,94.69-18.11,95.52Z"/><path class="cls-42" d="M879.36,535.35c.7-76.52,35.36-275.15,22.86-292-4.16-5.6-32.13-15.82-55.9-19.45-1.3,0-2.64-.06-4.09-.11-19.81-.54-34,1.55-44.64,4.82-15.93,4.85-24.23,12.33-32.24,17.65l-.65.42c-14.37,9.37-21.08,121-24,195.7-.88,23.13-1.91,64.7-2.56,93Z"/><rect class="cls-40" x="647.02" y="438" width="18.02" height="63.25"/><rect class="cls-41" x="652.29" y="438" width="18.01" height="63.25"/><path class="cls-44" d="M727.47,439.74c0,6.55-3.56,11.85-8,11.85H637.38c-4.4,0-8-5.3-8-11.85v-1.18c0-6.55,3.57-11.85,8-11.85H719.5c4.41,0,8,5.3,8,11.85Z"/><path class="cls-42" d="M674.24,439.74c0,6.55-2.48,11.85-5.54,11.85h-57c-3.07,0-5.54-5.3-5.54-11.85v-1.18c0-6.55,2.47-11.85,5.54-11.85h57c3.06,0,5.54,5.3,5.54,11.85Z"/><path class="cls-45" d="M317.73,361.68h75.39c3.34,0,6.05-3.77,6.05-8.4a10.18,10.18,0,0,0-1.78-5.94,5.33,5.33,0,0,0-4.27-2.46H317.73a5.43,5.43,0,0,1,4,2.46,10.18,10.18,0,0,1,1.78,5.94C323.47,357.78,320.93,361.45,317.73,361.68Z"/><path class="cls-46" d="M321,347.53a3,3,0,0,1,.31.38c.09.13.19.27.27.41h58.73v-.79Z"/><path class="cls-46" d="M322.67,351.1c.05.26.1.53.13.8H380v-.8Z"/><path class="cls-46" d="M322.67,355.47h57.05v-.79H322.8C322.77,355,322.72,355.22,322.67,355.47Z"/><path class="cls-46" d="M321,359.05h58.44v-.8H321.57A7.1,7.1,0,0,1,321,359.05Z"/><path class="cls-47" d="M317.7,360.88l0,1.59h75.44c3.65,0,6.62-4.12,6.62-9.19a11.18,11.18,0,0,0-1.94-6.5,5.84,5.84,0,0,0-4.68-2.7H317.68l0,1.59a4.75,4.75,0,0,1,3.28,1.84,3,3,0,0,1,.31.38c.09.13.19.27.27.41a9,9,0,0,1,1.11,2.78c.05.26.1.53.13.8a9.1,9.1,0,0,1,.09,1.39,10.7,10.7,0,0,1-.09,1.39c0,.27-.08.54-.13.79a9.08,9.08,0,0,1-1.1,2.78,7.1,7.1,0,0,1-.57.8A4.83,4.83,0,0,1,317.7,360.88Zm3.44,0a8,8,0,0,0,1.44-1.84,7.53,7.53,0,0,0,.41-.8,11,11,0,0,0,.86-2.78,6.83,6.83,0,0,0,.11-.79,12.12,12.12,0,0,0,0-2.78c0-.27-.06-.54-.1-.8a11.55,11.55,0,0,0-.87-2.78,6.58,6.58,0,0,0-.42-.79,7.11,7.11,0,0,0-.47-.74,7.52,7.52,0,0,0-1-1.11h72a4.81,4.81,0,0,1,3.87,2.23,9.27,9.27,0,0,1,1.6,5.38c0,4.19-2.45,7.6-5.47,7.6Z"/><path class="cls-48" d="M375.33,362.41H444c3,0,5.51-4.09,5.51-9.13a12.65,12.65,0,0,0-1.62-6.46,4.75,4.75,0,0,0-3.89-2.68H375.33a4.91,4.91,0,0,1,3.61,2.67,12.65,12.65,0,0,1,1.62,6.46C380.56,358.17,378.24,362.17,375.33,362.41Z"/><path class="cls-45" d="M296.45,388.88h75.38c3.35,0,6.05-5.65,6.05-12.61a21.19,21.19,0,0,0-1.77-8.91c-1.09-2.28-2.6-3.7-4.28-3.7H296.45c1.55.17,2.94,1.55,4,3.69a21,21,0,0,1,1.77,8.91C302.18,383,299.64,388.54,296.45,388.88Z"/><path class="cls-46" d="M299.7,367.63a6.06,6.06,0,0,1,.3.57c.1.21.19.41.28.63H359v-1.2Z"/><path class="cls-46" d="M301.38,373c.05.39.11.79.14,1.19h57.21V373Z"/><path class="cls-46" d="M301.38,379.56h57.06v-1.19H301.52C301.49,378.77,301.44,379.18,301.38,379.56Z"/><path class="cls-46" d="M299.71,384.93h58.44v-1.2H300.28A10.3,10.3,0,0,1,299.71,384.93Z"/><path class="cls-49" d="M296.42,387.68l0,2.39h75.44c3.65,0,6.61-6.19,6.61-13.8a23,23,0,0,0-1.94-9.76c-1.25-2.61-2.91-4-4.67-4H296.4l0,2.39c1.21.13,2.36,1.09,3.28,2.75a6.06,6.06,0,0,1,.3.57c.1.21.19.41.28.63a17.29,17.29,0,0,1,1.1,4.17c.05.39.11.79.14,1.19.06.68.09,1.39.09,2.09s0,1.41-.09,2.09c0,.4-.08.81-.14,1.19a17.13,17.13,0,0,1-1.1,4.17,10.3,10.3,0,0,1-.57,1.2C298.82,386.52,297.68,387.55,296.42,387.68Zm3.44,0a12.31,12.31,0,0,0,1.44-2.76c.15-.39.28-.78.41-1.2a22.92,22.92,0,0,0,.86-4.17c0-.39.08-.79.11-1.19.05-.68.07-1.37.07-2.09s0-1.4-.07-2.09c0-.39-.07-.8-.11-1.19a22.78,22.78,0,0,0-.86-4.17c-.13-.42-.27-.81-.42-1.2s-.3-.75-.47-1.11a11,11,0,0,0-1-1.65h72c1.45,0,2.83,1.18,3.86,3.33a19.14,19.14,0,0,1,1.61,8.08c0,6.3-2.45,11.41-5.47,11.41Z"/><path class="cls-50" d="M354.05,390H422.7c3,0,5.5-6.14,5.5-13.71a26.86,26.86,0,0,0-1.61-9.7c-1-2.48-2.37-4-3.89-4H354.25a.65.65,0,0,0-.2,0c1.41.18,2.68,1.68,3.61,4a26.86,26.86,0,0,1,1.61,9.7C359.27,383.61,357,389.61,354.05,390Z"/><path class="cls-51" d="M397,253.39c3.55-.55,7.24.21,10.9-.29-3-.81-6.31-2-9.12-2.29Z"/><path class="cls-52" d="M401,243.54c.13,15.7-8.81,29.47-14,43.84-3.33,9.22-6.41,19-8.95,28l-7-1A116.38,116.38,0,0,0,368,289.43c-1.66-7.54-3.84-15.2-6.18-22.94-4.7-15.61-6.48-35.73,9-46.16,4.63-3.11,9-3.92,12.92-3.11C393.9,219.28,400.9,232.15,401,243.54Z"/><path class="cls-51" d="M366,271.91c-2.23,2.81-5.46,4.75-7.82,7.59,2.74-1.41,6-2.78,8.27-4.48Z"/><path class="cls-51" d="M378.23,256c2.52-2.55,5.94-4.13,8.59-6.71-2.88,1.12-6.28,2.12-8.7,3.58Z"/><path class="cls-51" d="M387.54,286.18c2.53-2.55,5.95-4.13,8.6-6.71-2.88,1.12-6.29,2.12-8.71,3.58Z"/><path class="cls-51" d="M377.72,281.41c0-3.58,1.42-7.09,1.54-10.79-1.3,2.8-3.05,5.88-3.79,8.61Z"/><path class="cls-51" d="M374.76,239.25c.26-3.58,1.82-7,2.15-10.69-1.46,2.72-3.38,5.7-4.27,8.38Z"/><path class="cls-51" d="M391.17,226.83c.26-3.57,1.82-7,2.15-10.69-1.46,2.73-3.38,5.71-4.27,8.39Z"/><path class="cls-51" d="M363.21,256.41c-3.55.51-7.23-.3-10.9.16,3,.85,6.29,2.1,9.09,2.4Z"/><path class="cls-51" d="M368.81,226.74c-3.2-1.61-5.77-4.37-9-6.09,2,2.39,4,5.31,6.09,7.16Z"/><path class="cls-53" d="M401,243.54c.13,15.7-8.81,29.47-14,43.84-3.33,9.22-6.41,19-8.95,28l-7-1A116.38,116.38,0,0,0,368,289.43a26.41,26.41,0,0,0,9.24-4.21c7.33-5.72,11.42-16.9,13.31-25.84A65.67,65.67,0,0,0,389.21,228c-1-3.61-3.2-7.2-5.45-10.78C393.9,219.28,400.9,232.15,401,243.54Z"/><polygon class="cls-54" points="360.22 302.95 364.25 344.19 390.41 344.19 394.07 302.95 360.22 302.95"/><rect class="cls-55" x="357.64" y="302.95" width="39.02" height="7.54"/><path class="cls-56" d="M371.06,339.36a1.56,1.56,0,0,1-1.42,1.68h0a1.55,1.55,0,0,1-1.67-1.42l-2.07-24.75a1.55,1.55,0,0,1,1.42-1.67h0a1.55,1.55,0,0,1,1.67,1.42Z"/><path class="cls-56" d="M380.68,306.5a1.34,1.34,0,0,1-1.33,1.33H360.72a1.34,1.34,0,0,1-1.33-1.33h0a1.33,1.33,0,0,1,1.33-1.33h18.63a1.33,1.33,0,0,1,1.33,1.33Z"/><path class="cls-13" d="M395.46,696.77c-4.29,3.78-10.46,2.92-14.14,6.5a17.93,17.93,0,0,0-3.16-3.74h-1.05c-2.31-.17-6.48-1-8.49-2.62,2.73-4.52,1.11-7.72,4.27-10.71.16-.15.34-.3.52-.45,3.18-2.58,9-2,10.11-6.67,1.65.36,4.4,2.18,6.59,4a24.09,24.09,0,0,1,2.91,2.69C396.53,689.83,393,692.43,395.46,696.77Z"/><path class="cls-57" d="M395.46,696.77c-4.29,3.78-10.46,2.92-14.14,6.5a17.93,17.93,0,0,0-3.16-3.74h-1.05c-2.31-.17-6.48-1-8.49-2.62,2.73-4.52,1.11-7.72,4.27-10.71,0,.25,0,.48,0,.7,0,2.6.05,5.21,0,7.81.76-.7,2.26,0,3.21.23,1.33.29,1.41.37,2.19-.39,1.45-1.41,2.39-4.21,3.7-5.89a16.3,16.3,0,0,1,2.28-2.65c.05,1.46.4,2.84.53,4.18a3.26,3.26,0,0,0-1-1.5c-1.35,1.9-2.81,3.84-4.23,5.72,1.71,1.3,4,2,5.82,3.18.67-1,1.23-3.19,2.31-3.88s2.48.29,3.79.68c-1.32-1.38-3.28-1.66-5-2.08,1.69-1.07,4.43-2.25,4.84-3.85.73-2.85-2.42-2.42-4.37-2.68,1.09-.86,2.15-1.77,3.19-2.74a24.09,24.09,0,0,1,2.91,2.69C396.53,689.83,393,692.43,395.46,696.77Z"/><path class="cls-13" d="M415.08,704.3c-4.05,5.66-11.61,6.33-15,11.58a21.78,21.78,0,0,0-4.77-3.57l-1.25.29c-2.79.43-8,.55-10.78-.78,2-6.12-.8-9.47,2.14-13.88.15-.23.31-.46.49-.69,3.07-3.92,10.11-4.86,10.17-10.67,2.06,0,5.81,1.39,8.9,2.9a28.86,28.86,0,0,1,4.19,2.39C414.46,695.78,411,699.82,415.08,704.3Z"/><path class="cls-57" d="M415.08,704.3c-4.05,5.66-11.61,6.33-15,11.58a21.78,21.78,0,0,0-4.77-3.57l-1.25.29c-2.79.43-8,.55-10.78-.78,2-6.12-.8-9.47,2.14-13.88.05.29.1.57.16.83.71,3.09,1.48,6.17,2.12,9.27.71-1,2.69-.59,3.88-.6,1.65,0,1.77,0,2.49-1.06,1.33-2.07,1.69-5.66,2.78-8a19.84,19.84,0,0,1,2-3.77c.46,1.72,1.25,3.26,1.77,4.82a4,4,0,0,0-1.62-1.5c-1.08,2.62-2.28,5.32-3.45,8,2.38,1.06,5.3,1.31,7.77,2.18.53-1.34.59-4.12,1.69-5.24s3-.33,4.68-.24c-1.95-1.27-4.35-1.06-6.49-1.1,1.71-1.73,4.63-3.87,4.68-5.89.09-3.58-3.53-2.2-5.91-2,1.05-1.31,2.07-2.69,3-4.12a28.86,28.86,0,0,1,4.19,2.39C414.46,695.78,411,699.82,415.08,704.3Z"/><path class="cls-13" d="M377.88,713.68c-4.12.67-7.6-2.27-11.27-1.49a13,13,0,0,0-.5-3.54l-.65-.41c-1.36-1-3.6-3.17-4.22-4.92,3.45-1.74,3.69-4.35,6.81-5l.5-.08c3-.35,6.34,2.25,8.84-.18a15.19,15.19,0,0,1,2.53,5,16.59,16.59,0,0,1,.75,2.8C381.24,709.81,378.06,710.05,377.88,713.68Z"/><path class="cls-57" d="M377.88,713.68c-4.12.67-7.6-2.27-11.27-1.49a13,13,0,0,0-.5-3.54l-.65-.41c-1.36-1-3.6-3.17-4.22-4.92,3.45-1.74,3.69-4.35,6.81-5l-.29.43c-1,1.6-2,3.23-3,4.81.74-.13,1.38.9,1.89,1.4.71.69.73.77,1.5.61,1.45-.31,3.12-1.67,4.59-2.2a11.62,11.62,0,0,1,2.44-.75c-.54.92-.86,1.91-1.3,2.79a2.4,2.4,0,0,0,0-1.32c-1.57.64-3.23,1.28-4.84,1.88.55,1.47,1.68,2.82,2.35,4.23.8-.33,2-1.48,2.95-1.49s1.42,1.15,2.08,1.9c-.28-1.37-1.39-2.31-2.28-3.24,1.46,0,3.61.34,4.49-.49,1.56-1.48-.56-2.44-1.65-3.36q1.5-.15,3-.45a16.59,16.59,0,0,1,.75,2.8C381.24,709.81,378.06,710.05,377.88,713.68Z"/><path class="cls-58" d="M348.44,628.26l5.84,70.65,3.52,42.66h58.67l9-113.31Zm11,80.24-.71-8.65-4.6-55.64h5l5.37,56.33.76,8Zm8.77,0-.75-7.86-5.38-56.43h6.73l2.61,56.32.37,8Zm9.48,0h-3l-.39-8.27-2.59-56h6l-.05,55.45Zm7.4,0h-4.49v-9.57l.06-54.72h5l-.46,53.11Zm2.92,0,.11-12.59.45-51.7h4.75l0,48.29,0,16Zm11.27,0h-3l0-18.5-.05-45.79h6l-1.91,41.25Zm2.92,0,1.28-27.79,1.69-36.5h6.73L410,663.51l-4.29,45Zm12.53,0h-6l6.13-64.29h5Z"/><g class="cls-59"><path class="cls-60" d="M415.37,628.26a168.15,168.15,0,0,1-3,24.56c-.69,3.59-1.44,7.18-2.34,10.69l-4.29,45h-3.57l1.28-27.79a42.39,42.39,0,0,1-3.14,4.75l-1.06,23h-3l0-18.5a37.25,37.25,0,0,1-2.92,2.5l0,16H388l.11-12.59c-1,.51-1.93,1-2.93,1.41l-.1,11.18h-4.49v-9.57c-1,.28-1.93.52-2.91.73v8.84h-3l-.39-8.27c-1,.13-1.93.22-2.9.3l.37,8h-3.58l-.75-7.86c-1,0-2,0-2.94-.1l.76,8h-5.84l-.71-8.65c-1.49-.26-3-.57-4.43-.94l3.52,42.66h58.67l9-113.31Zm-.66,80.24h-6l6.13-64.29h5Z"/></g><path class="cls-58" d="M432.29,630.39a3.8,3.8,0,0,1-3.8,3.79H345a3.79,3.79,0,0,1-3.79-3.79h0a3.8,3.8,0,0,1,3.79-3.8h83.46a3.8,3.8,0,0,1,3.8,3.8Z"/><path class="cls-61" d="M408.94,629.8a2.4,2.4,0,0,1-2.64,2.05H347.09a2.4,2.4,0,0,1-2.64-2.05h0a2.4,2.4,0,0,1,2.64-2H406.3a2.4,2.4,0,0,1,2.64,2Z"/></g></g></g></svg>